<svg width="84" height="84" viewBox="0 0 84 84" fill="none" xmlns="http://www.w3.org/2000/svg">
<g opacity="0.8" filter="url(#filter1_d_1993_1308)">
<circle cx="42" cy="40" r="36" fill="#E8F5E8"/>
<circle cx="42" cy="40" r="35.25" stroke="url(#paint0_linear_1993_1308)" stroke-width="1.5"/>
</g>
<g clip-path="url(#clip0_1993_1308)">
<path d="M51.992 38.8423L57.0658 33.7686L57.5179 34.2207C58.1609 34.8637 58.1609 35.8985 57.5179 36.5416L54.0517 40.0078L57.5179 43.474C58.1609 44.1171 58.1609 45.1519 57.5179 45.7949L57.0658 46.247L51.992 41.1733C51.349 40.5303 51.349 39.4854 51.992 38.8423Z" fill="#12A150"/>
<path d="M32.0082 41.1611L26.9344 46.2449L26.4823 45.7928C25.8392 45.1498 25.8392 44.1149 26.4823 43.4719L29.9485 40.0056L26.4823 36.5293C25.8392 35.8863 25.8392 34.8515 26.4823 34.2085L26.9344 33.7563L32.0082 38.8301C32.6512 39.4731 32.6512 40.518 32.0082 41.1611Z" fill="#12A150"/>
<path d="M40.8397 30.0082L35.7559 24.9344L36.208 24.4823C36.851 23.8392 37.8858 23.8392 38.5289 24.4823L41.9951 27.9485L45.4614 24.4823C46.1044 23.8392 47.1392 23.8392 47.7822 24.4823L48.2344 24.9344L43.1606 30.0082C42.5176 30.6512 41.4727 30.6512 40.8296 30.0082H40.8397Z" fill="#12A150"/>
<path d="M48.2437 32.1048V24.9312H48.8767C49.7809 24.9312 50.5144 25.6646 50.5144 26.5688V31.4718H55.4174C56.3216 31.4718 57.055 32.2052 57.055 33.1095V33.7425H49.8714C48.9671 33.7425 48.2236 33.009 48.2236 32.0947L48.2437 32.1048Z" fill="#12A150"/>
<path d="M35.7559 32.1048V24.9312H35.123C34.2187 24.9312 33.4853 25.6646 33.4853 26.5688V31.4718H28.5722C27.668 31.4718 26.9346 32.2052 26.9346 33.1095V33.7425H34.1182C35.0225 33.7425 35.766 33.009 35.766 32.0947L35.7559 32.1048Z" fill="#12A150"/>
<path d="M43.1606 49.995L48.2344 55.0687L47.7822 55.5209C47.1392 56.1639 46.1044 56.1639 45.4614 55.5209L41.9951 52.0546L38.5289 55.5209C37.8858 56.1639 36.851 56.1639 36.208 55.5209L35.7559 55.0687L40.8296 49.995C41.4727 49.3519 42.5176 49.3519 43.1606 49.995Z" fill="#12A150"/>
<path d="M35.7559 47.8813V55.065H35.123C34.2187 55.065 33.4853 54.3316 33.4853 53.4273V48.5243H28.5722C27.668 48.5243 26.9346 47.7909 26.9346 46.8867V46.2437H34.1182C35.0225 46.2437 35.766 46.9771 35.766 47.8914L35.7559 47.8813Z" fill="#12A150"/>
<path d="M48.2437 47.8813V55.065H48.8767C49.7809 55.065 50.5144 54.3316 50.5144 53.4273V48.5243H55.4174C56.3216 48.5243 57.055 47.7909 57.055 46.8867V46.2437H49.8714C48.9671 46.2437 48.2236 46.9771 48.2236 47.8914L48.2437 47.8813Z" fill="#12A150"/>
</g>
<defs>
<filter id="filter1_d_1993_1308" x="0" y="0" width="84" height="84" filterUnits="userSpaceOnUse" color-interpolation-filters="sRGB">
<feFlood flood-opacity="0" result="BackgroundImageFix"/>
<feColorMatrix in="SourceAlpha" type="matrix" values="0 0 0 0 0 0 0 0 0 0 0 0 0 0 0 0 0 0 127 0" result="hardAlpha"/>
<feOffset dy="2"/>
<feGaussianBlur stdDeviation="3"/>
<feComposite in2="hardAlpha" operator="out"/>
<feColorMatrix type="matrix" values="0 0 0 0 0 0 0 0 0 0 0 0 0 0 0 0 0 0 0.15 0"/>
<feBlend mode="normal" in2="BackgroundImageFix" result="effect1_dropShadow_1993_1308"/>
<feBlend mode="normal" in="SourceGraphic" in2="effect1_dropShadow_1993_1308" result="shape"/>
</filter>
<linearGradient id="paint0_linear_1993_1308" x1="13.3125" y1="22.5625" x2="59.4375" y2="61.375" gradientUnits="userSpaceOnUse">
<stop stop-color="#12A150"/>
<stop offset="1" stop-color="#74E374"/>
</linearGradient>
<clipPath id="clip0_1993_1308">
<rect width="32" height="32" fill="white" transform="translate(26 24)"/>
</clipPath>
</defs>
</svg>
