<svg width="25" height="24" viewBox="0 0 25 24" fill="none" xmlns="http://www.w3.org/2000/svg">
<g clip-path="url(#clip0_1993_1450)">
<path d="M20 3H17.75V2.25C17.75 2.05109 17.671 1.86032 17.5303 1.71967C17.3897 1.57902 17.1989 1.5 17 1.5C16.8011 1.5 16.6103 1.57902 16.4697 1.71967C16.329 1.86032 16.25 2.05109 16.25 2.25V3H8.75V2.25C8.75 2.05109 8.67098 1.86032 8.53033 1.71967C8.38968 1.57902 8.19891 1.5 8 1.5C7.80109 1.5 7.61032 1.57902 7.46967 1.71967C7.32902 1.86032 7.25 2.05109 7.25 2.25V3H5C4.60218 3 4.22064 3.15804 3.93934 3.43934C3.65804 3.72064 3.5 4.10218 3.5 4.5V19.5C3.5 19.8978 3.65804 20.2794 3.93934 20.5607C4.22064 20.842 4.60218 21 5 21H20C20.3978 21 20.7794 20.842 21.0607 20.5607C21.342 20.2794 21.5 19.8978 21.5 19.5V4.5C21.5 4.10218 21.342 3.72064 21.0607 3.43934C20.7794 3.15804 20.3978 3 20 3ZM7.25 6V5.25C7.25 5.05109 7.32902 4.86032 7.46967 4.71967C7.61032 4.57902 7.80109 4.5 8 4.5C8.19891 4.5 8.38968 4.57902 8.53033 4.71967C8.67098 4.86032 8.75 5.05109 8.75 5.25V6C8.75 6.19891 8.67098 6.38968 8.53033 6.53033C8.38968 6.67098 8.19891 6.75 8 6.75C7.80109 6.75 7.61032 6.67098 7.46967 6.53033C7.32902 6.38968 7.25 6.19891 7.25 6ZM17.2391 11.6906L14.9459 13.5834L15.6453 16.4062C15.6631 16.4779 15.6594 16.5533 15.6345 16.6228C15.6097 16.6924 15.5648 16.753 15.5056 16.7972C15.4407 16.845 15.3622 16.871 15.2816 16.8713C15.2156 16.8708 15.1509 16.8531 15.0941 16.8197L12.5 15.2981L9.90875 16.8234C9.84482 16.8613 9.77107 16.8794 9.69687 16.8753C9.62267 16.8712 9.55136 16.8451 9.492 16.8004C9.43263 16.7557 9.38788 16.6944 9.36344 16.6242C9.33899 16.554 9.33594 16.4782 9.35469 16.4062L10.0541 13.5797L7.76094 11.6906C7.70305 11.6431 7.66073 11.5793 7.63942 11.5075C7.61812 11.4357 7.61881 11.3591 7.6414 11.2877C7.664 11.2163 7.70746 11.1533 7.7662 11.1068C7.82493 11.0603 7.89624 11.0325 7.97094 11.0269L10.9934 10.7934L12.1559 8.10187C12.185 8.03478 12.2331 7.97766 12.2942 7.93753C12.3553 7.8974 12.4269 7.87603 12.5 7.87603C12.5731 7.87603 12.6447 7.8974 12.7058 7.93753C12.7669 7.97766 12.815 8.03478 12.8441 8.10187L14.0066 10.7934L17.0291 11.0269C17.1038 11.0325 17.1751 11.0603 17.2338 11.1068C17.2925 11.1533 17.336 11.2163 17.3586 11.2877C17.3812 11.3591 17.3819 11.4357 17.3606 11.5075C17.3393 11.5793 17.2969 11.6431 17.2391 11.6906ZM17.75 6C17.75 6.19891 17.671 6.38968 17.5303 6.53033C17.3897 6.67098 17.1989 6.75 17 6.75C16.8011 6.75 16.6103 6.67098 16.4697 6.53033C16.329 6.38968 16.25 6.19891 16.25 6V5.25C16.25 5.05109 16.329 4.86032 16.4697 4.71967C16.6103 4.57902 16.8011 4.5 17 4.5C17.1989 4.5 17.3897 4.57902 17.5303 4.71967C17.671 4.86032 17.75 5.05109 17.75 5.25V6Z" fill="url(#paint0_linear_1993_1450)"/>
</g>
<defs>
<linearGradient id="paint0_linear_1993_1450" x1="12.5" y1="1.5" x2="12.5" y2="21" gradientUnits="userSpaceOnUse">
<stop stop-color="#FBBB54"/>
<stop offset="1" stop-color="#C88110"/>
</linearGradient>
<clipPath id="clip0_1993_1450">
<rect width="24" height="24" fill="white" transform="translate(0.5)"/>
</clipPath>
</defs>
</svg>
