<svg width="33" height="18" viewBox="0 0 33 18" fill="none" xmlns="http://www.w3.org/2000/svg">
<rect y="0.5" width="33" height="17" rx="4" fill="url(#paint0_linear_1998_279)"/>
<path d="M6.73 12.5V5.5H9.32C9.89333 5.5 10.3667 5.6 10.74 5.8C11.12 5.99333 11.4033 6.25667 11.59 6.59C11.7767 6.92333 11.87 7.30333 11.87 7.73C11.87 8.12333 11.78 8.49 11.6 8.83C11.42 9.16333 11.1433 9.43333 10.77 9.64C10.3967 9.84667 9.91333 9.95 9.32 9.95H8.08V12.5H6.73ZM8.08 8.85H9.24C9.69333 8.85 10.0133 8.75 10.2 8.55C10.3933 8.34333 10.49 8.07 10.49 7.73C10.49 7.37667 10.3933 7.1 10.2 6.9C10.0133 6.7 9.69333 6.6 9.24 6.6H8.08V8.85ZM12.9409 12.5V5.5H15.5609C16.1209 5.5 16.5843 5.59667 16.9509 5.79C17.3243 5.98333 17.6009 6.24333 17.7809 6.57C17.9609 6.89 18.0509 7.24667 18.0509 7.64C18.0509 8.01333 17.9609 8.36333 17.7809 8.69C17.6076 9.01 17.3343 9.27 16.9609 9.47C16.5943 9.66333 16.1209 9.76 15.5409 9.76H14.2909V12.5H12.9409ZM16.5709 12.5L15.1309 9.42H16.5909L18.1109 12.5H16.5709ZM14.2909 8.78H15.4709C15.8843 8.78 16.1876 8.68 16.3809 8.48C16.5743 8.28 16.6709 8.01667 16.6709 7.69C16.6709 7.36333 16.5743 7.10667 16.3809 6.92C16.1876 6.72667 15.8843 6.63 15.4709 6.63H14.2909V8.78ZM22.4079 12.62C21.7479 12.62 21.1679 12.4667 20.6679 12.16C20.1679 11.8533 19.7746 11.43 19.4879 10.89C19.2079 10.3433 19.0679 9.71333 19.0679 9C19.0679 8.28667 19.2079 7.66 19.4879 7.12C19.7746 6.57333 20.1679 6.14667 20.6679 5.84C21.1679 5.53333 21.7479 5.38 22.4079 5.38C23.0679 5.38 23.6479 5.53333 24.1479 5.84C24.6546 6.14667 25.0479 6.57333 25.3279 7.12C25.6079 7.66 25.7479 8.28667 25.7479 9C25.7479 9.71333 25.6079 10.3433 25.3279 10.89C25.0479 11.43 24.6546 11.8533 24.1479 12.16C23.6479 12.4667 23.0679 12.62 22.4079 12.62ZM22.4079 11.41C22.8079 11.41 23.1546 11.3133 23.4479 11.12C23.7412 10.92 23.9679 10.64 24.1279 10.28C24.2879 9.92 24.3679 9.49333 24.3679 9C24.3679 8.5 24.2879 8.07333 24.1279 7.72C23.9679 7.36 23.7412 7.08333 23.4479 6.89C23.1546 6.69667 22.8079 6.6 22.4079 6.6C22.0079 6.6 21.6612 6.69667 21.3679 6.89C21.0746 7.08333 20.8446 7.36 20.6779 7.72C20.5179 8.07333 20.4379 8.5 20.4379 9C20.4379 9.49333 20.5179 9.92 20.6779 10.28C20.8446 10.64 21.0746 10.92 21.3679 11.12C21.6612 11.3133 22.0079 11.41 22.4079 11.41Z" fill="white"/>
<defs>
<linearGradient id="paint0_linear_1998_279" x1="16.5" y1="0.5" x2="16.5" y2="17.5" gradientUnits="userSpaceOnUse">
<stop stop-color="#FBBB54"/>
<stop offset="1" stop-color="#C88110"/>
</linearGradient>
</defs>
</svg>
