<svg width="24" height="24" viewBox="0 0 24 24" fill="none" xmlns="http://www.w3.org/2000/svg">
<g clip-path="url(#clip0_175_385)">
<path d="M6.75 9.75C6.75 8.95435 7.06607 8.19129 7.62868 7.62868C8.19129 7.06607 8.95435 6.75 9.75 6.75L11.25 9.75L10.095 11.4816C10.5532 12.5763 11.4237 13.4468 12.5184 13.905L14.25 12.75L17.25 14.25C17.25 15.0456 16.9339 15.8087 16.3713 16.3713C15.8087 16.9339 15.0456 17.25 14.25 17.25C12.2609 17.25 10.3532 16.4598 8.9467 15.0533C7.54018 13.6468 6.75 11.7391 6.75 9.75Z" stroke="black" stroke-width="1.5" stroke-linecap="round" stroke-linejoin="round"/>
<path d="M7.49356 19.7934C9.38406 20.8875 11.608 21.2568 13.7506 20.8324C15.8933 20.4079 17.8084 19.2187 19.1391 17.4865C20.4697 15.7543 21.125 13.5973 20.9827 11.4177C20.8404 9.23801 19.9103 7.18448 18.3657 5.63996C16.8212 4.09543 14.7677 3.16532 12.588 3.02303C10.4084 2.88075 8.25138 3.536 6.51916 4.86663C4.78695 6.19726 3.59777 8.11243 3.17333 10.2551C2.74889 12.3977 3.11817 14.6216 4.21231 16.5121L3.0395 20.0137C2.99543 20.1459 2.98903 20.2877 3.02103 20.4232C3.05302 20.5588 3.12215 20.6828 3.22065 20.7813C3.31915 20.8798 3.44314 20.9489 3.57871 20.9809C3.71429 21.0129 3.8561 21.0065 3.98825 20.9625L7.49356 19.7934Z" stroke="black" stroke-width="1.5" stroke-linecap="round" stroke-linejoin="round"/>
</g>
<defs>
<clipPath id="clip0_175_385">
<rect width="24" height="24" fill="white"/>
</clipPath>
</defs>
</svg>
