<svg width="24" height="24" viewBox="0 0 24 24" fill="none" xmlns="http://www.w3.org/2000/svg">
<path d="M10.875 16.5C10.875 16.6989 10.796 16.8897 10.6553 17.0303C10.5147 17.171 10.3239 17.25 10.125 17.25H7.5C7.30109 17.25 7.11032 17.171 6.96967 17.0303C6.82902 16.8897 6.75 16.6989 6.75 16.5C6.75 16.3011 6.82902 16.1103 6.96967 15.9697C7.11032 15.829 7.30109 15.75 7.5 15.75H10.125C10.3239 15.75 10.5147 15.829 10.6553 15.9697C10.796 16.1103 10.875 16.3011 10.875 16.5ZM16.5 15.75H13.875C13.6761 15.75 13.4853 15.829 13.3447 15.9697C13.204 16.1103 13.125 16.3011 13.125 16.5C13.125 16.6989 13.204 16.8897 13.3447 17.0303C13.4853 17.171 13.6761 17.25 13.875 17.25H16.5C16.6989 17.25 16.8897 17.171 17.0303 17.0303C17.171 16.8897 17.25 16.6989 17.25 16.5C17.25 16.3011 17.171 16.1103 17.0303 15.9697C16.8897 15.829 16.6989 15.75 16.5 15.75ZM22.5 20.25C22.5 20.4489 22.421 20.6397 22.2803 20.7803C22.1397 20.921 21.9489 21 21.75 21H2.25C2.05109 21 1.86032 20.921 1.71967 20.7803C1.57902 20.6397 1.5 20.4489 1.5 20.25C1.5 20.0511 1.57902 19.8603 1.71967 19.7197C1.86032 19.579 2.05109 19.5 2.25 19.5H3V8.25C3 8.11072 3.03879 7.97418 3.11201 7.8557C3.18524 7.73722 3.29001 7.64147 3.41459 7.57918C3.53917 7.51689 3.67863 7.49052 3.81735 7.50303C3.95608 7.51554 4.08857 7.56643 4.2 7.65L9 11.25V8.25C9 8.11072 9.03879 7.97418 9.11201 7.8557C9.18524 7.73722 9.29001 7.64147 9.41459 7.57918C9.53917 7.51689 9.67863 7.49052 9.81735 7.50303C9.95608 7.51554 10.0886 7.56643 10.2 7.65L13.8319 10.3734L14.9156 2.78812C14.9681 2.43127 15.1468 2.10506 15.4193 1.86871C15.6917 1.63236 16.0399 1.50154 16.4006 1.5H18.0994C18.4601 1.50154 18.8083 1.63236 19.0807 1.86871C19.3532 2.10506 19.5319 2.43127 19.5844 2.78812L20.9906 12.6441C20.9906 12.6441 20.9981 12.7172 20.9981 12.75V19.5H21.7481C21.8468 19.4998 21.9445 19.519 22.0357 19.5566C22.1269 19.5941 22.2098 19.6493 22.2797 19.719C22.3495 19.7887 22.4049 19.8714 22.4427 19.9626C22.4805 20.0537 22.5 20.1514 22.5 20.25ZM15.2006 11.4L16.0003 12H19.3856L18.0994 3H16.4006L15.2006 11.4ZM4.5 19.5H19.5V13.5H15.75C15.5877 13.5 15.4298 13.4474 15.3 13.35L13.95 12.3375L10.5 9.75V12.75C10.5 12.8893 10.4612 13.0258 10.388 13.1443C10.3148 13.2628 10.21 13.3585 10.0854 13.4208C9.96083 13.4831 9.82137 13.5095 9.68265 13.497C9.54392 13.4845 9.41143 13.4336 9.3 13.35L4.5 9.75V19.5Z" fill="#12A150"/>
</svg>
