<svg width="16" height="17" viewBox="0 0 16 17" fill="none" xmlns="http://www.w3.org/2000/svg">
<g clip-path="url(#clip0_1998_43)">
<path d="M13.5 10H11.5V13.5" stroke="#12A150" stroke-width="1.25" stroke-linecap="round" stroke-linejoin="round"/>
<path d="M13 12H11.5" stroke="#12A150" stroke-width="1.25" stroke-linecap="round" stroke-linejoin="round"/>
<path d="M3 12.5H4C4.33152 12.5 4.64946 12.3683 4.88388 12.1339C5.1183 11.8995 5.25 11.5815 5.25 11.25C5.25 10.9185 5.1183 10.6005 4.88388 10.3661C4.64946 10.1317 4.33152 10 4 10H3V13.5" stroke="#12A150" stroke-width="1.25" stroke-linecap="round" stroke-linejoin="round"/>
<path d="M7 10V13.5H8C8.46413 13.5 8.90925 13.3156 9.23744 12.9874C9.56563 12.6592 9.75 12.2141 9.75 11.75C9.75 11.2859 9.56563 10.8408 9.23744 10.5126C8.90925 10.1844 8.46413 10 8 10H7Z" stroke="#12A150" stroke-width="1.25" stroke-linecap="round" stroke-linejoin="round"/>
<path d="M3 7.5V3C3 2.86739 3.05268 2.74021 3.14645 2.64645C3.24021 2.55268 3.36739 2.5 3.5 2.5H9.5L13 6V7.5" stroke="#12A150" stroke-width="1.25" stroke-linecap="round" stroke-linejoin="round"/>
<path d="M9.5 2.5V6H13" stroke="#12A150" stroke-width="1.25" stroke-linecap="round" stroke-linejoin="round"/>
</g>
<defs>
<clipPath id="clip0_1998_43">
<rect width="16" height="16" fill="white" transform="translate(0 0.5)"/>
</clipPath>
</defs>
</svg>
